<?xml version="1.0" encoding="UTF-8"?>
<svg id="Layer_1" data-name="Layer 1" xmlns="http://www.w3.org/2000/svg" viewBox="0 0 793.57 617.36">
  <defs>
    <style>
      .cls-1 {
        fill: #fff;
        stroke-width: 0px;
      }
    </style>
  </defs>
  <path class="cls-1" d="m646.5,91.59c0-18.29-14.63-32.92-32.92-32.92s-32.92,14.63-32.92,32.92c0,5.33,1.25,10.34,3.46,14.77l-298.35,240.49-124.61-100.6-.91-1.37v203.15l-60.17,48.5c-5.79-5.08-13.39-8.16-21.76-8.16-18.29,0-32.92,14.63-32.92,32.92s14.63,32.92,32.92,32.92,32.92-14.63,32.92-32.92c0-5.83-1.49-11.28-4.11-16.01l53.12-42.82v87.82h120.7v-62.18l30.17,24.23,29.72-23.77v61.72h120.7V245.33l-150.87,121.61-15.95-12.87,296.08-238.66c4.62,4.42,10.53,7.48,17.14,8.61v130h11.28V124.02c15.56-2.65,27.28-16.07,27.28-32.43Z"/>
  <path class="cls-1" d="m632.52,254.02h-13.29l-.13,86.41c15.63,2.59,27.41,16.05,27.41,32.46,0,18.29-14.63,32.92-32.92,32.92s-32.92-14.63-32.92-32.92c0-16.41,11.78-29.86,27.41-32.46l-.13-86.41h-118.98v296.26h120.7v-60.35h23.32c65.83,0,118.87-52.58,118.87-117.04s-53.49-118.87-119.32-118.87Z"/>
</svg>