<?xml version="1.0" encoding="UTF-8"?>
<svg id="Layer_1" data-name="Layer 1" xmlns="http://www.w3.org/2000/svg" viewBox="0 0 1920 710">
  <defs>
    <style>
      .cls-1 {
        stroke-width: 0px;
      }
    </style>
  </defs>
  <g>
    <path class="cls-1" d="m928.38,149.19c.73-.73,1.82-1.64,3.09-1.64,2.18,0,3.82,1.64,3.82,3.82v113.21c0,2.18-1.64,3.82-3.82,3.82s-3.82-1.64-3.82-3.82v-103.2l-48.23,54.06c-.91,1.09-2,1.46-3.09,1.46s-2.18-.37-3.09-1.46l-48.23-54.06v103.2c0,2.18-1.64,3.82-3.82,3.82s-3.82-1.64-3.82-3.82v-113.21c0-2.18,1.64-3.82,3.82-3.82,1.27,0,2.37.91,3.09,1.64l52.05,58.61,52.05-58.61Z"/>
    <path class="cls-1" d="m1038.49,255.48c-7.28,9.1-18.75,14.2-32.58,14.2-24.75,0-44.77-20.57-44.77-45.87s20.57-45.68,44.77-45.68c13.83,0,25.3,5.1,32.58,14.2v-9.65c0-2.18,1.64-3.82,3.82-3.82s3.82,1.64,3.82,3.82v81.9c0,2.18-1.64,3.82-3.82,3.82s-3.82-1.64-3.82-3.82v-9.1Zm0-11.65v-39.68c-5.46-11.28-18.2-18.75-32.58-18.75-20.2,0-36.95,17.47-36.95,38.4s16.74,38.59,36.95,38.59c14.38,0,27.12-7.46,32.58-18.57Z"/>
    <path class="cls-1" d="m1071.61,182.68c0-2.18,1.64-3.82,3.82-3.82s3.82,1.64,3.82,3.82v10.19c7.83-9.46,20.2-14.74,35.31-14.74,17.84,0,29.85,7.83,35.13,22.02,6.73-14.02,20.75-22.02,38.59-22.02,24.75,0,38.4,15.65,38.4,40.22v46.23c0,2.18-1.64,3.82-3.82,3.82s-3.82-1.64-3.82-3.82v-45.5c0-22.75-10.56-33.67-31.67-33.67-16.2,0-34.4,10.01-34.4,33.49v45.68c0,2.18-1.64,3.82-3.82,3.82s-3.82-1.64-3.82-3.82v-45.5c0-22.75-10.56-33.67-31.67-33.67-15.47,0-28.76,7.46-34.4,18.93v60.24c0,2.18-1.64,3.82-3.82,3.82s-3.82-1.64-3.82-3.82v-81.9Z"/>
    <path class="cls-1" d="m1252.15,182.68c0-2.18,1.64-3.82,3.82-3.82s3.82,1.64,3.82,3.82v10.19c7.83-9.46,20.2-14.74,35.31-14.74,17.84,0,29.85,7.83,35.13,22.02,6.73-14.02,20.75-22.02,38.59-22.02,24.75,0,38.4,15.65,38.4,40.22v46.23c0,2.18-1.64,3.82-3.82,3.82s-3.82-1.64-3.82-3.82v-45.5c0-22.75-10.56-33.67-31.67-33.67-16.2,0-34.4,10.01-34.4,33.49v45.68c0,2.18-1.64,3.82-3.82,3.82s-3.82-1.64-3.82-3.82v-45.5c0-22.75-10.56-33.67-31.67-33.67-15.47,0-28.76,7.46-34.4,18.93v60.24c0,2.18-1.64,3.82-3.82,3.82s-3.82-1.64-3.82-3.82v-81.9Z"/>
    <path class="cls-1" d="m1507.68,255.48c-7.28,9.1-18.75,14.2-32.58,14.2-24.75,0-44.77-20.57-44.77-45.87s20.57-45.68,44.77-45.68c13.83,0,25.3,5.1,32.58,14.2v-9.65c0-2.18,1.64-3.82,3.82-3.82s3.82,1.64,3.82,3.82v81.9c0,2.18-1.64,3.82-3.82,3.82s-3.82-1.64-3.82-3.82v-9.1Zm0-11.65v-39.68c-5.46-11.28-18.2-18.75-32.58-18.75-20.2,0-36.95,17.47-36.95,38.4s16.75,38.59,36.95,38.59c14.38,0,27.12-7.46,32.58-18.57Z"/>
    <path class="cls-1" d="m1544.44,151.38c0-2.18,1.64-3.82,3.82-3.82s3.82,1.64,3.82,3.82v88.27c0,12.74,4.73,21.3,15.11,21.48,2,0,3.64,1.64,3.64,3.64s-1.64,3.64-3.64,3.64c-14.92,0-22.75-12.01-22.75-28.76v-88.27Z"/>
    <path class="cls-1" d="m1597.22,147.19c4.37,0,8.01,3.64,8.01,8.01s-3.64,8.01-8.01,8.01-8.01-3.64-8.01-8.01,3.64-8.01,8.01-8.01Zm21.84,117.58c0,1.27-.91,3.64-3.64,3.64-1.82,0-3.82-.36-4.91-.73-11.47-3.28-17.11-14.2-17.11-28.03v-56.97c0-2.18,1.64-3.82,3.82-3.82s3.82,1.64,3.82,3.82v56.97c0,12.38,5.1,20.75,14.38,21.48,2,0,3.64,1.64,3.64,3.64Z"/>
    <path class="cls-1" d="m1709.52,255.48c-7.28,9.1-18.75,14.2-32.58,14.2-24.75,0-44.77-20.57-44.77-45.87s20.57-45.68,44.77-45.68c13.83,0,25.3,5.1,32.58,14.2v-9.65c0-2.18,1.64-3.82,3.82-3.82s3.82,1.64,3.82,3.82v81.9c0,2.18-1.64,3.82-3.82,3.82s-3.82-1.64-3.82-3.82v-9.1Zm0-11.65v-39.68c-5.46-11.28-18.2-18.75-32.58-18.75-20.2,0-36.95,17.47-36.95,38.4s16.75,38.59,36.95,38.59c14.38,0,27.12-7.46,32.58-18.57Z"/>
    <path class="cls-1" d="m1742.64,182.68c0-2.18,1.64-3.82,3.82-3.82s3.82,1.64,3.82,3.82v10.19c7.83-9.46,20.2-14.74,35.31-14.74,24.75,0,38.4,15.65,38.4,40.22v46.23c0,2.18-1.64,3.82-3.82,3.82s-3.82-1.64-3.82-3.82v-45.5c0-22.75-10.56-33.67-31.67-33.67-15.47,0-28.76,7.46-34.4,18.93v60.24c0,2.18-1.64,3.82-3.82,3.82s-3.82-1.64-3.82-3.82v-81.9Z"/>
    <path class="cls-1" d="m883.19,317.42c0-2.18,1.64-3.82,3.82-3.82h65.7c26.21,0,47.5,21.3,47.5,47.32s-21.3,47.5-47.32,47.5h-62.06v20.75c0,2.18-1.64,3.82-3.82,3.82s-3.82-1.64-3.82-3.82v-111.75Zm69.71,3.46h-62.06v80.26h61.88c21.84,0,39.68-18.02,39.68-40.22s-17.84-40.04-39.5-40.04Z"/>
    <path class="cls-1" d="m1022.06,315.96c0-2.18,1.64-3.82,3.82-3.82s3.82,1.64,3.82,3.82v41.5c7.83-9.46,20.2-14.74,35.31-14.74,24.75,0,38.4,15.65,38.4,40.22v46.23c0,2.18-1.64,3.82-3.82,3.82s-3.82-1.64-3.82-3.82v-45.5c0-22.75-10.56-33.67-31.67-33.67-15.47,0-28.76,7.46-34.4,18.93v60.24c0,2.18-1.64,3.82-3.82,3.82s-3.82-1.64-3.82-3.82v-113.21Z"/>
    <path class="cls-1" d="m1203.33,411.15c.55-.91,1.64-1.46,2.91-1.46,2,0,3.64,1.64,3.64,3.64,0,1.09-.55,2-1.09,2.73-8.74,11.47-21.11,18.2-36.58,18.2-28.21,0-45.68-20.57-45.68-45.87s19.66-45.68,43.86-45.68,43.86,20.57,43.86,45.68c0,2.55,0,5.46-4.55,5.46h-74.99c2.37,18.57,16.74,33.13,37.49,33.13,14.2,0,24.39-6.55,31.12-15.83Zm-68.98-24.57h72.26c-.91-20.02-16.74-36.58-36.22-36.58s-35.13,16.56-36.04,36.58Z"/>
    <path class="cls-1" d="m1237.36,347.27c0-2.18,1.64-3.82,3.82-3.82s3.82,1.64,3.82,3.82v10.19c7.83-9.46,20.2-14.74,35.31-14.74,24.75,0,38.4,15.65,38.4,40.22v46.23c0,2.18-1.64,3.82-3.82,3.82s-3.82-1.64-3.82-3.82v-45.5c0-22.75-10.56-33.67-31.67-33.67-15.47,0-28.76,7.46-34.4,18.93v60.24c0,2.18-1.64,3.82-3.82,3.82s-3.82-1.64-3.82-3.82v-81.9Z"/>
    <path class="cls-1" d="m1387.51,434.27c-25.12,0-45.68-20.57-45.68-45.87s20.57-45.68,45.68-45.68,45.87,20.57,45.87,45.68-20.57,45.87-45.87,45.87Zm0-84.27c-20.57,0-37.86,17.47-37.86,38.4s17.29,38.59,37.86,38.59,38.04-17.47,38.04-38.59-17.29-38.4-38.04-38.4Z"/>
    <path class="cls-1" d="m1449.21,344.54h9.1v-22.57c0-2.18,1.64-3.82,3.82-3.82s3.82,1.64,3.82,3.82v22.57h41.86c2,0,3.64,1.64,3.64,3.64s-1.64,3.64-3.64,3.64h-41.86v48.23c0,16.93,7.1,26.94,22.57,26.94,7.46,0,12.92-1.46,18.2-4.55.55-.37,1.27-.55,2-.55,2,0,3.64,1.64,3.64,3.64,0,1.27-.73,2.73-2,3.28-6.73,3.28-13.1,5.46-21.84,5.46-20.57,0-30.21-12.92-30.21-34.22v-48.23h-9.1c-2,0-3.64-1.64-3.64-3.64s1.64-3.64,3.64-3.64Z"/>
    <path class="cls-1" d="m1531.29,343.45c1.27,0,2.73.55,3.46,2.37l34.76,76.99,35.31-77.35c.73-1.46,1.82-2,3.28-2,2,0,3.64,1.64,3.64,3.64,0,.55-.18,1.27-.36,1.64l-41.68,91.37c-5.46,12.19-13.29,21.48-24.57,23.48-.73.18-1.46.18-1.82.18-2,0-3.64-1.64-3.64-3.64s1.45-3.46,3.28-3.64c9.1-.91,15.47-9.28,20.02-19.29l2.73-6.01-37.67-82.45c-.18-.55-.37-.91-.37-1.64,0-2,1.64-3.64,3.64-3.64Z"/>
    <path class="cls-1" d="m1631.21,347.27c0-2.18,1.64-3.82,3.82-3.82s3.82,1.64,3.82,3.82v9.65c7.28-9.1,18.75-14.2,32.58-14.2,24.21,0,44.77,20.57,44.77,45.68s-20.02,45.87-44.77,45.87c-13.83,0-25.3-5.1-32.58-14.2v39.5c0,2.18-1.64,3.82-3.82,3.82s-3.82-1.64-3.82-3.82v-112.3Zm77.17,41.13c0-20.93-16.75-38.4-36.95-38.4-14.56,0-27.3,7.46-32.58,18.75v39.68c5.28,11.1,18.02,18.57,32.58,18.57,20.2,0,36.95-17.47,36.95-38.59Z"/>
    <path class="cls-1" d="m1813.76,411.15c.55-.91,1.64-1.46,2.91-1.46,2,0,3.64,1.64,3.64,3.64,0,1.09-.55,2-1.09,2.73-8.74,11.47-21.11,18.2-36.58,18.2-28.21,0-45.68-20.57-45.68-45.87s19.66-45.68,43.86-45.68,43.86,20.57,43.86,45.68c0,2.55,0,5.46-4.55,5.46h-74.99c2.37,18.57,16.74,33.13,37.49,33.13,14.2,0,24.39-6.55,31.12-15.83Zm-68.98-24.57h72.26c-.91-20.02-16.74-36.58-36.22-36.58s-35.13,16.56-36.04,36.58Z"/>
    <path class="cls-1" d="m876.33,475.45c34.04,0,61.7,27.67,61.7,61.7s-27.67,61.7-61.7,61.7-61.7-27.67-61.7-61.7,27.67-61.7,61.7-61.7Zm0,116.12c29.67,0,53.87-24.39,53.87-54.42s-24.21-54.42-53.87-54.42-53.87,24.39-53.87,54.42,24.21,54.42,53.87,54.42Z"/>
    <path class="cls-1" d="m959.87,511.85c0-2.18,1.64-3.82,3.82-3.82s3.82,1.64,3.82,3.82v10.19c7.83-9.46,20.2-14.74,35.31-14.74,24.75,0,38.4,15.65,38.4,40.22v46.23c0,2.18-1.64,3.82-3.82,3.82s-3.82-1.64-3.82-3.82v-45.5c0-22.75-10.56-33.67-31.67-33.67-15.47,0-28.76,7.46-34.4,18.93v60.24c0,2.18-1.64,3.82-3.82,3.82s-3.82-1.64-3.82-3.82v-81.9Z"/>
    <path class="cls-1" d="m1063.06,509.12h9.1v-22.57c0-2.18,1.64-3.82,3.82-3.82s3.82,1.64,3.82,3.82v22.57h41.86c2,0,3.64,1.64,3.64,3.64s-1.64,3.64-3.64,3.64h-41.86v48.23c0,16.93,7.1,26.94,22.57,26.94,7.46,0,12.92-1.46,18.2-4.55.55-.36,1.27-.55,2-.55,2,0,3.64,1.64,3.64,3.64,0,1.27-.73,2.73-2,3.28-6.73,3.28-13.1,5.46-21.84,5.46-20.57,0-30.21-12.92-30.21-34.22v-48.23h-9.1c-2,0-3.64-1.64-3.64-3.64s1.64-3.64,3.64-3.64Z"/>
    <path class="cls-1" d="m1185.73,598.85c-25.12,0-45.68-20.57-45.68-45.87s20.57-45.68,45.68-45.68,45.87,20.57,45.87,45.68-20.57,45.87-45.87,45.87Zm0-84.27c-20.57,0-37.86,17.47-37.86,38.4s17.29,38.59,37.86,38.59,38.04-17.47,38.04-38.59-17.29-38.4-38.04-38.4Z"/>
    <path class="cls-1" d="m1258.34,480.55c0-2.18,1.64-3.82,3.82-3.82s3.82,1.64,3.82,3.82v88.27c0,12.74,4.73,21.3,15.11,21.48,2,0,3.64,1.64,3.64,3.64s-1.64,3.64-3.64,3.64c-14.92,0-22.75-12.01-22.75-28.76v-88.27Z"/>
    <path class="cls-1" d="m1343.52,598.85c-25.12,0-45.68-20.57-45.68-45.87s20.57-45.68,45.68-45.68,45.87,20.57,45.87,45.68-20.57,45.87-45.87,45.87Zm0-84.27c-20.57,0-37.86,17.47-37.86,38.4s17.29,38.59,37.86,38.59,38.04-17.47,38.04-38.59-17.29-38.4-38.04-38.4Z"/>
    <path class="cls-1" d="m1487.48,511.85c0-2.18,1.64-3.82,3.82-3.82s3.82,1.64,3.82,3.82v76.44c0,22.39-14.74,40.22-40.4,40.22-10.19,0-18.57-4-22.93-6.73-1.09-.73-1.64-1.82-1.64-3.09,0-2,1.64-3.64,3.64-3.64.73,0,1.46.18,2,.55,3.46,2.18,10.19,5.64,18.93,5.64,20.75,0,32.76-14.56,32.76-32.94v-3.64c-7.28,9.1-18.75,14.2-32.58,14.2-24.75,0-44.77-20.57-44.77-45.87s20.57-45.68,44.77-45.68c13.83,0,25.3,5.1,32.58,14.2v-9.65Zm0,61.15v-39.68c-5.46-11.28-18.2-18.75-32.58-18.75-20.2,0-36.95,17.47-36.95,38.4s16.74,38.59,36.95,38.59c14.38,0,27.12-7.46,32.58-18.57Z"/>
    <path class="cls-1" d="m1518.78,508.03c1.27,0,2.73.55,3.46,2.37l34.76,76.99,35.31-77.35c.73-1.46,1.82-2,3.28-2,2,0,3.64,1.64,3.64,3.64,0,.55-.18,1.27-.36,1.64l-41.68,91.37c-5.46,12.19-13.29,21.48-24.57,23.48-.73.18-1.46.18-1.82.18-2,0-3.64-1.64-3.64-3.64s1.45-3.46,3.28-3.64c9.1-.91,15.47-9.28,20.02-19.29l2.73-6.01-37.67-82.45c-.18-.55-.37-.91-.37-1.64,0-2,1.64-3.64,3.64-3.64Z"/>
  </g>
  <path class="cls-1" d="m696.42,114.4c0-18.29-14.63-32.92-32.92-32.92s-32.92,14.63-32.92,32.92c0,5.33,1.25,10.34,3.46,14.77l-298.35,240.49-124.61-100.6-.91-1.37v203.15l-60.17,48.5c-5.79-5.08-13.39-8.16-21.76-8.16-18.29,0-32.92,14.63-32.92,32.92s14.63,32.92,32.92,32.92,32.92-14.63,32.92-32.92c0-5.83-1.49-11.28-4.11-16.01l53.12-42.82v87.82h120.7v-62.18l30.17,24.23,29.72-23.77v61.72h120.7v-304.94l-150.87,121.61-15.95-12.87,296.08-238.66c4.62,4.42,10.53,7.48,17.14,8.61v130h11.28v-130c15.56-2.65,27.28-16.07,27.28-32.43Z"/>
  <path class="cls-1" d="m682.44,276.83h-13.29l-.13,86.41c15.63,2.59,27.41,16.05,27.41,32.46,0,18.29-14.63,32.92-32.92,32.92s-32.92-14.63-32.92-32.92c0-16.41,11.78-29.86,27.41-32.46l-.13-86.41h-118.98v296.26h120.7v-60.35h23.32c65.83,0,118.87-52.58,118.87-117.04s-53.49-118.87-119.32-118.87Z"/>
</svg>